<?xml version="1.0" standalone="no"?>
<!DOCTYPE svg PUBLIC "-//W3C//DTD SVG 20010904//EN"
 "http://www.w3.org/TR/2001/REC-SVG-20010904/DTD/svg10.dtd">
<svg version="1.0" xmlns="http://www.w3.org/2000/svg"
 width="2805.000000pt" height="2806.000000pt" viewBox="0 0 2805.000000 2806.000000"
 preserveAspectRatio="xMidYMid meet">

<g transform="translate(0.000000,2806.000000) scale(0.100000,-0.100000)"
fill="#000000" stroke="none">
<path d="M13725 26234 c-55 -2 -194 -8 -310 -14 -2603 -133 -5103 -1087 -7140
-2724 -596 -479 -1184 -1050 -1694 -1645 -1019 -1189 -1824 -2609 -2329 -4106
-728 -2160 -845 -4510 -336 -6745 680 -2986 2472 -5648 4994 -7421 770 -542
1662 -1026 2523 -1371 1118 -447 2273 -727 3457 -837 443 -41 563 -46 1175
-46 610 0 723 4 1170 46 3182 293 6135 1819 8256 4264 1643 1893 2684 4272
2958 6760 87 782 99 1614 35 2395 -207 2554 -1196 4974 -2838 6945 -2155 2586
-5216 4182 -8551 4460 -378 31 -1039 50 -1370 39z m910 -314 c1317 -65 2568
-327 3780 -792 1238 -475 2415 -1169 3442 -2029 512 -429 1049 -961 1465
-1452 1676 -1980 2661 -4362 2863 -6927 38 -483 45 -1226 15 -1675 -138 -2119
-777 -4071 -1910 -5835 -1254 -1953 -3084 -3537 -5195 -4500 -2094 -954 -4416
-1291 -6710 -974 -2915 403 -5602 1873 -7533 4119 -2298 2673 -3313 6145
-2821 9645 368 2614 1619 5082 3521 6945 2144 2101 4926 3322 7908 3474 233
12 938 12 1175 1z"/>
<path d="M13470 25759 c-2752 -137 -5347 -1208 -7415 -3059 -206 -184 -730
-709 -915 -915 -1109 -1238 -1939 -2664 -2460 -4226 -622 -1865 -772 -3877
-435 -5836 363 -2107 1304 -4103 2704 -5738 386 -451 894 -957 1356 -1351
1584 -1351 3524 -2275 5567 -2653 687 -127 1295 -187 2023 -198 794 -12 1536
49 2310 188 2025 365 3934 1259 5526 2585 543 452 1101 1010 1553 1553 804
965 1461 2066 1924 3226 588 1473 873 3020 849 4610 -7 413 -15 575 -47 931
-162 1786 -728 3516 -1655 5059 -407 678 -834 1254 -1389 1875 -151 169 -669
690 -836 841 -1030 930 -2149 1646 -3406 2179 -1289 548 -2665 860 -4099 930
-240 12 -911 11 -1155 -1z m1040 -109 c1546 -62 2961 -390 4381 -1016 203 -90
721 -349 929 -465 629 -351 1286 -801 1830 -1254 1278 -1065 2314 -2372 3054
-3853 1271 -2543 1581 -5495 866 -8257 -981 -3791 -3800 -6882 -7490 -8213
-2013 -725 -4219 -890 -6330 -471 -1943 385 -3750 1250 -5287 2531 -531 442
-1080 991 -1524 1524 -1554 1865 -2495 4135 -2708 6534 -35 393 -45 624 -45
1070 0 524 20 888 75 1360 283 2451 1310 4722 2979 6585 184 206 669 691 875
875 1127 1009 2391 1779 3784 2304 1453 548 3061 808 4611 746z"/>
<path d="M17280 24749 c-74 -31 -82 -70 -36 -188 39 -98 45 -160 20 -185 -8
-9 -16 -16 -17 -16 -1 0 -29 -5 -62 -10 -107 -18 -315 20 -600 109 -155 49
-177 50 -215 13 -62 -62 -60 -198 2 -250 8 -6 73 -16 146 -22 81 -6 164 -20
217 -35 94 -27 193 -74 215 -100 13 -15 12 -20 -8 -36 -13 -10 -48 -23 -80
-30 -60 -12 -109 -8 -332 26 -104 16 -183 15 -234 -5 -38 -14 -67 -67 -64
-115 3 -37 7 -42 53 -65 49 -24 55 -25 275 -25 189 0 233 3 273 18 63 22 102
22 127 -3 44 -44 -3 -111 -115 -165 -116 -57 -235 -87 -358 -91 -94 -2 -114
-6 -151 -28 -72 -42 -103 -86 -110 -153 -17 -156 -28 -200 -80 -313 -89 -192
-111 -280 -86 -354 19 -59 38 -64 394 -106 710 -84 979 -169 1456 -455 162
-98 190 -121 307 -255 214 -244 365 -370 444 -370 16 0 39 10 53 23 l26 22
-15 69 c-10 46 -39 115 -90 212 -41 79 -75 148 -75 154 0 5 23 31 51 57 106
100 142 203 233 657 36 178 70 344 76 368 30 118 -60 220 -266 303 -49 20 -95
42 -103 50 -21 21 -6 61 29 75 47 20 128 -2 266 -70 131 -65 180 -74 250 -45
29 12 40 26 70 92 19 43 50 108 69 145 61 117 45 172 -68 246 -175 114 -598
306 -812 370 -142 42 -321 82 -370 82 -94 0 -176 -76 -226 -209 -25 -69 -29
-173 -6 -216 32 -63 59 -77 203 -106 74 -15 152 -36 172 -47 42 -22 69 -61 58
-87 -6 -17 -15 -17 -119 -9 -248 20 -365 3 -457 -64 -19 -14 -104 -96 -187
-183 -84 -86 -169 -164 -189 -174 -72 -34 -131 -17 -237 69 -93 76 -87 105 29
137 45 13 78 29 100 50 50 49 92 153 124 309 52 256 69 283 238 370 145 74
192 134 192 244 0 62 -35 120 -113 191 -118 105 -155 128 -212 132 -27 1 -61
-2 -75 -8z m930 -659 c41 -15 168 -62 281 -103 235 -86 281 -107 327 -151 54
-50 78 -117 54 -152 -12 -19 -49 -34 -82 -34 -33 0 -90 25 -90 39 0 16 -116
99 -190 136 -105 53 -199 84 -309 100 -108 17 -125 28 -146 98 -19 64 -19 63
5 87 23 23 35 22 150 -20z m-236 -624 c46 -19 79 -62 65 -87 -19 -37 -141 -20
-178 25 -22 27 18 73 67 75 7 1 27 -5 46 -13z m-1343 -139 c18 -12 39 -34 46
-47 41 -80 -18 -236 -132 -354 -77 -78 -147 -100 -165 -50 -44 114 64 416 164
460 42 18 48 17 87 -9z m1812 -28 c66 -54 96 -139 61 -173 -20 -21 -39 -11
-126 67 -71 62 -78 78 -52 115 23 33 71 29 117 -9z m-645 -84 c98 -45 112 -60
112 -114 0 -53 -28 -101 -59 -101 -33 0 -163 72 -207 115 -49 47 -55 74 -22
105 31 29 108 27 176 -5z m-769 -174 c68 -35 89 -99 57 -176 -38 -91 -181
-100 -247 -16 -40 50 -7 148 65 192 40 24 77 24 125 0z m1343 -85 c84 -34 157
-84 189 -129 32 -44 36 -73 15 -102 -56 -77 -316 105 -316 222 0 29 3 33 28
33 15 0 53 -11 84 -24z m-739 -57 c43 -12 101 -59 123 -100 7 -15 14 -50 14
-78 0 -39 -6 -56 -26 -81 -52 -62 -159 -93 -242 -71 -73 20 -192 153 -192 215
0 26 53 78 105 102 55 26 151 32 218 13z m579 -268 c96 -46 158 -96 182 -145
35 -74 8 -205 -51 -243 -51 -34 -222 2 -325 69 -150 95 -145 289 9 343 61 22
97 18 185 -24z"/>
<path d="M10048 24527 c-64 -18 -98 -43 -98 -70 0 -38 28 -120 76 -228 51
-111 52 -140 11 -214 -42 -75 -148 -124 -507 -234 -199 -61 -298 -98 -404
-154 -90 -46 -178 -123 -207 -179 -22 -44 -25 -115 -5 -162 54 -130 206 -96
534 121 131 86 290 176 525 297 71 36 85 40 157 41 86 0 120 -17 120 -61 0
-44 -22 -71 -176 -219 -86 -81 -208 -209 -273 -284 -65 -75 -155 -176 -200
-226 -105 -115 -155 -191 -251 -378 -134 -261 -185 -428 -178 -585 4 -112 32
-172 102 -219 131 -89 235 3 300 263 14 54 34 154 46 221 39 230 106 406 223
586 111 170 310 375 480 495 86 61 245 137 350 167 320 91 713 30 948 -148 31
-23 130 -108 220 -188 193 -171 254 -219 329 -253 67 -31 140 -34 190 -8 37
20 70 72 70 110 0 38 -36 128 -76 189 -55 83 -223 253 -309 313 -223 154 -544
260 -875 290 -141 13 -251 7 -392 -21 -120 -24 -154 -24 -198 0 -46 24 -59 60
-36 96 23 35 148 94 320 150 203 67 311 86 531 94 205 8 243 17 299 69 37 35
66 97 66 145 1 130 -191 131 -632 3 -85 -25 -185 -50 -223 -56 -38 -6 -128
-24 -200 -40 -146 -33 -264 -39 -318 -16 -68 28 -107 102 -107 204 0 53 0 53
-42 72 -59 26 -134 32 -190 17z"/>
<path d="M13843 22422 c-7 -4 -30 -147 -58 -362 -29 -224 -52 -363 -61 -377
-13 -20 -23 -23 -87 -24 -39 0 -112 -4 -162 -9 -77 -7 -92 -6 -107 9 -10 9
-53 155 -108 361 -50 190 -95 349 -99 353 -8 8 -301 -24 -398 -44 l-53 -10 0
-369 c0 -304 -2 -371 -14 -383 -8 -7 -87 -28 -177 -46 -157 -32 -162 -32 -180
-14 -10 10 -78 164 -152 343 -114 277 -137 325 -155 328 -25 4 -402 -94 -416
-108 -5 -5 10 -155 38 -370 29 -230 43 -367 37 -377 -7 -12 -183 -80 -314
-120 -9 -3 -24 0 -32 7 -8 7 -92 146 -186 309 -95 163 -180 304 -189 314 -17
18 -21 17 -121 -23 -176 -71 -291 -124 -297 -138 -2 -7 37 -168 87 -357 57
-211 90 -352 86 -365 -8 -24 -270 -160 -308 -160 -30 0 -29 -2 -267 313 -174
231 -206 268 -225 265 -30 -6 -366 -198 -371 -213 -3 -7 56 -160 131 -341 84
-204 135 -339 133 -356 -2 -22 -27 -43 -133 -117 -77 -54 -140 -91 -155 -91
-18 0 -85 60 -285 260 -143 143 -264 260 -269 260 -23 0 -346 -258 -346 -277
0 -8 80 -152 177 -320 114 -198 176 -315 176 -333 0 -20 -10 -37 -34 -57 -18
-15 -73 -63 -122 -105 -48 -43 -93 -78 -100 -78 -25 0 -71 33 -331 234 -147
113 -275 206 -285 206 -25 0 -325 -305 -315 -322 4 -7 103 -137 219 -288 116
-151 215 -284 218 -294 9 -24 -6 -47 -116 -173 -73 -84 -95 -103 -117 -103
-18 0 -143 66 -341 179 -296 168 -315 178 -333 162 -19 -16 -222 -278 -247
-318 -13 -22 -2 -34 249 -286 202 -203 262 -269 261 -288 0 -14 -40 -80 -92
-154 -71 -99 -99 -131 -117 -133 -15 -2 -160 54 -348 133 -178 74 -330 135
-337 135 -8 0 -52 -64 -99 -142 -102 -173 -131 -231 -123 -250 3 -8 132 -110
286 -228 203 -154 283 -221 288 -239 5 -19 -11 -60 -68 -170 -65 -128 -77
-146 -101 -149 -14 -2 -175 38 -358 87 -182 50 -339 91 -349 91 -14 0 -36 -43
-95 -187 -43 -102 -78 -197 -79 -211 -2 -22 28 -42 308 -203 171 -98 316 -186
322 -196 18 -27 -84 -332 -115 -346 -15 -7 -128 5 -377 39 -254 34 -358 45
-366 37 -6 -6 -35 -102 -66 -213 -45 -167 -52 -205 -41 -215 7 -7 159 -74 338
-149 179 -75 331 -144 338 -153 6 -9 10 -24 8 -32 -3 -9 -17 -79 -32 -156 -14
-77 -33 -148 -42 -157 -14 -17 -45 -18 -383 -18 -342 0 -368 -1 -373 -17 -24
-84 -62 -421 -49 -434 5 -5 166 -52 357 -103 191 -51 352 -98 358 -104 17 -17
-5 -339 -25 -359 -11 -11 -114 -29 -371 -62 -196 -26 -361 -52 -366 -57 -7 -7
-9 -91 -8 -230 l3 -219 364 -47 c237 -31 369 -52 378 -60 8 -9 17 -59 23 -138
15 -190 13 -217 -10 -230 -10 -6 -171 -51 -357 -101 -186 -49 -342 -94 -347
-99 -9 -9 16 -260 37 -380 l12 -65 370 -5 c204 -3 377 -8 385 -13 10 -5 25
-60 47 -175 31 -158 31 -168 15 -183 -9 -9 -160 -76 -335 -149 -175 -74 -325
-138 -333 -145 -14 -9 -9 -36 40 -219 31 -114 56 -209 56 -212 0 -10 85 -1
395 41 182 25 340 43 351 40 17 -4 32 -35 77 -167 61 -177 61 -185 4 -214
-119 -62 -597 -348 -597 -358 0 -11 81 -216 140 -353 13 -29 29 -53 37 -53 7
0 167 41 354 91 189 50 350 88 362 85 30 -7 172 -286 163 -320 -4 -15 -101
-96 -290 -239 -157 -119 -288 -221 -291 -227 -12 -19 201 -383 227 -388 10 -2
164 58 343 133 178 75 335 135 347 133 27 -4 208 -257 208 -291 0 -14 -83
-104 -262 -284 -227 -228 -260 -265 -252 -282 13 -29 247 -330 260 -335 6 -2
152 76 325 175 187 107 325 179 340 179 22 0 46 -22 125 -116 55 -64 102 -124
106 -134 3 -9 1 -28 -6 -41 -7 -13 -106 -145 -220 -293 -114 -147 -210 -274
-213 -282 -7 -19 304 -327 323 -320 7 3 140 102 294 221 238 184 284 216 309
213 20 -2 66 -34 145 -102 95 -82 116 -105 116 -127 0 -16 -67 -145 -176 -334
-96 -169 -178 -313 -180 -320 -5 -11 54 -59 265 -217 42 -32 80 -57 86 -58 5
0 127 117 270 260 201 200 267 260 286 259 37 0 283 -179 287 -208 2 -14 -54
-162 -134 -353 -106 -253 -136 -333 -128 -346 6 -9 93 -63 193 -120 170 -98
184 -104 199 -88 9 9 112 141 228 294 122 160 218 279 229 281 28 5 314 -139
321 -162 3 -10 -36 -173 -86 -362 -51 -189 -90 -350 -87 -358 5 -13 240 -119
350 -156 l57 -20 18 27 c10 15 94 157 187 315 92 158 175 292 184 297 20 10
312 -86 337 -111 13 -14 10 -52 -34 -375 -37 -269 -47 -362 -38 -370 12 -13
379 -114 412 -114 19 0 40 44 159 329 75 182 145 337 154 345 15 14 33 12 181
-16 107 -20 169 -36 178 -46 9 -12 12 -104 12 -384 l0 -368 23 -5 c53 -12 408
-54 420 -49 8 3 52 148 106 352 51 191 98 353 106 361 10 11 45 12 180 6 154
-7 167 -9 180 -29 8 -12 32 -163 60 -376 28 -216 51 -358 58 -362 7 -4 105 -8
219 -8 160 0 210 3 220 13 9 9 28 132 56 353 24 186 49 353 57 370 l13 31 129
6 c223 12 221 12 238 -25 8 -18 53 -179 101 -358 47 -179 89 -328 93 -333 9
-9 422 42 439 55 9 8 12 95 12 372 0 275 3 366 13 378 8 10 67 26 172 46 134
25 163 28 180 17 13 -8 67 -125 155 -340 74 -180 141 -330 148 -333 15 -5 208
41 346 83 65 20 86 30 86 44 0 9 -20 163 -45 342 -25 178 -45 338 -45 355 0
36 12 48 55 58 16 4 85 28 152 52 89 32 128 42 141 35 9 -5 98 -149 197 -320
99 -171 185 -312 191 -315 9 -3 158 49 209 74 11 6 61 27 110 49 50 21 91 45
93 53 2 8 -38 163 -88 344 -50 181 -90 343 -88 359 3 28 13 35 153 104 118 58
154 71 171 65 13 -5 122 -138 244 -296 121 -159 224 -288 228 -288 16 0 366
207 376 222 7 12 -25 99 -129 351 -96 234 -136 343 -132 359 4 14 27 36 60 55
30 18 89 57 131 88 42 30 87 55 99 55 14 0 103 -82 282 -260 143 -143 265
-260 272 -260 18 0 332 240 346 265 4 9 -58 126 -173 324 -119 207 -180 321
-180 340 0 22 11 37 47 67 26 22 79 67 117 102 54 48 77 62 100 62 25 0 87
-43 316 -220 157 -121 288 -220 292 -220 4 0 78 69 164 154 105 102 155 158
152 168 -4 8 -103 141 -221 296 -118 154 -218 289 -222 300 -4 16 11 40 66
104 123 144 148 168 174 168 13 0 161 -79 329 -175 167 -96 310 -177 318 -180
11 -4 56 47 147 165 72 93 131 176 131 183 0 6 -114 127 -254 267 -150 150
-257 265 -261 280 -5 20 12 51 87 160 67 97 100 136 116 138 12 2 170 -58 353
-134 258 -107 334 -136 347 -128 21 13 224 364 219 379 -2 5 -131 108 -288
227 -176 135 -287 227 -293 242 -13 35 124 313 159 322 14 3 156 -30 364 -85
187 -50 347 -91 355 -91 21 0 184 385 174 412 -3 7 -146 94 -317 193 -231 133
-313 185 -317 201 -9 34 90 327 114 337 11 5 145 -9 353 -37 184 -25 349 -46
367 -46 28 0 32 4 42 43 6 23 20 71 30 107 27 90 72 281 68 285 -2 2 -151 65
-333 140 -181 75 -338 144 -347 153 -16 16 -15 27 16 181 25 121 38 168 52
178 14 10 93 13 380 13 247 0 365 3 369 11 14 22 60 428 50 438 -8 8 -671 191
-690 191 -2 0 -11 7 -19 16 -13 13 -15 34 -11 132 9 195 14 221 38 234 12 6
182 32 377 58 l355 45 3 227 2 226 -27 6 c-16 3 -174 24 -353 47 -179 23 -336
46 -350 53 -16 7 -26 22 -31 46 -11 58 -19 305 -9 319 4 8 161 55 356 107 191
51 352 98 358 104 8 8 3 70 -16 220 -15 115 -29 214 -33 220 -4 6 -135 10
-371 10 -338 0 -365 1 -382 18 -12 12 -29 70 -50 177 -27 134 -30 161 -18 173
7 7 163 76 345 152 183 76 335 141 338 143 5 6 -33 169 -67 287 -11 36 -24 84
-30 108 -9 33 -15 42 -33 42 -12 0 -176 -21 -365 -46 -373 -51 -384 -51 -395
4 -3 16 -27 86 -52 156 -39 108 -44 129 -33 147 7 11 151 99 320 195 169 96
310 179 313 185 9 14 -8 63 -88 252 -53 124 -76 167 -89 167 -9 0 -166 -41
-348 -91 -183 -49 -344 -89 -358 -87 -24 3 -36 21 -101 151 -63 123 -73 151
-65 171 5 14 118 107 274 226 146 111 276 213 289 225 l24 23 -105 183 c-57
100 -111 187 -120 193 -13 8 -93 -22 -345 -127 -180 -76 -338 -137 -351 -137
-27 0 -30 3 -131 155 -45 65 -81 128 -81 139 0 12 98 118 260 281 143 143 260
266 260 271 0 6 -30 51 -67 99 -38 48 -94 122 -126 164 -32 42 -63 79 -70 82
-7 4 -151 -73 -322 -172 -210 -121 -320 -179 -340 -179 -26 0 -43 14 -115 98
-126 143 -133 154 -121 183 5 13 107 150 226 303 118 153 214 283 213 288 -8
23 -304 308 -320 308 -10 0 -138 -93 -285 -207 -148 -114 -280 -213 -295 -220
-36 -18 -46 -13 -179 105 -89 77 -109 100 -109 122 0 18 66 142 181 340 170
294 179 313 164 330 -19 21 -284 227 -321 250 -24 14 -28 11 -287 -248 -184
-183 -269 -262 -285 -262 -12 0 -83 41 -157 92 -113 78 -135 96 -135 118 0 14
61 172 136 352 75 179 134 333 131 341 -7 18 -355 217 -379 217 -11 0 -101
-110 -239 -290 -192 -251 -225 -290 -248 -290 -14 1 -89 33 -166 73 -129 67
-140 74 -143 102 -1 17 38 178 88 358 49 181 90 335 90 343 0 17 -71 51 -274
131 -133 53 -140 54 -153 37 -8 -11 -90 -152 -184 -315 -93 -164 -176 -303
-185 -310 -12 -10 -42 -3 -172 41 -86 29 -163 57 -169 63 -19 14 -17 34 32
397 25 183 45 340 43 348 -5 26 -418 136 -437 117 -5 -6 -71 -156 -146 -335
-75 -179 -142 -331 -150 -339 -12 -12 -36 -10 -174 19 -88 18 -165 37 -173 41
-10 7 -14 87 -18 381 l-5 372 -45 13 c-63 17 -393 54 -402 45 -4 -4 -49 -161
-101 -350 -53 -194 -101 -351 -111 -363 -11 -14 -25 -19 -39 -16 -12 3 -78 8
-147 12 -159 8 -165 9 -178 42 -6 16 -30 180 -53 367 -28 223 -48 343 -57 352
-10 11 -59 14 -220 14 -114 0 -212 -4 -219 -8z m817 -1587 c96 -8 229 -22 295
-31 2092 -265 3975 -1468 5108 -3265 548 -869 902 -1853 1031 -2864 66 -515
73 -1118 20 -1635 -203 -1959 -1224 -3751 -2817 -4942 -1027 -768 -2237 -1242
-3502 -1372 -472 -49 -986 -49 -1460 -1 -1316 134 -2581 645 -3625 1464 -248
195 -406 336 -651 580 -391 392 -683 752 -968 1199 -916 1432 -1281 3124
-1040 4822 229 1608 1038 3127 2254 4228 1210 1095 2706 1726 4345 1832 200
13 805 4 1010 -15z"/>
<path d="M13618 18935 l-3 -436 -90 196 c-49 108 -92 198 -95 199 -3 2 -80
-33 -172 -78 l-167 -81 87 -190 c48 -104 92 -200 97 -212 10 -22 12 -22 174
57 90 44 165 80 167 80 2 0 4 -616 4 -1370 l0 -1370 465 0 465 0 0 1820 0
1820 -465 0 -465 0 -2 -435z m642 -115 l0 -80 -175 0 -175 0 0 80 0 80 175 0
175 0 0 -80z m0 -365 l0 -85 -175 0 -175 0 0 85 0 85 175 0 175 0 0 -85z m0
-360 l0 -85 -175 0 -175 0 0 85 0 85 175 0 175 0 0 -85z m0 -360 l0 -85 -175
0 -175 0 0 85 0 85 175 0 175 0 0 -85z"/>
<path d="M14820 17395 l0 -1665 410 0 410 0 0 1288 c1 1064 3 1284 14 1270 7
-10 327 -589 712 -1287 384 -699 702 -1271 705 -1271 4 0 157 83 340 184 219
121 334 190 333 199 -1 12 -1415 2588 -1430 2606 -1 2 -146 -76 -321 -172
-176 -97 -327 -179 -336 -183 -16 -6 -17 19 -17 345 l0 351 -410 0 -410 0 0
-1665z m588 1063 l-3 -83 -175 0 -175 0 -3 83 -3 82 181 0 181 0 -3 -82z m-3
-363 l0 -80 -175 0 -175 0 -3 69 c-2 38 -1 75 2 83 5 11 39 13 178 11 l173 -3
0 -80z m1008 -16 c22 -39 37 -72 35 -73 -1 -2 -70 -40 -151 -85 -131 -73 -150
-81 -160 -67 -23 31 -71 125 -66 130 7 7 293 166 299 166 3 0 22 -32 43 -71z
m186 -331 l32 -57 -32 -16 c-17 -9 -87 -47 -155 -85 l-123 -68 -38 66 c-21 37
-38 70 -38 75 0 4 68 45 150 91 131 72 151 81 161 67 6 -9 25 -42 43 -73z
m-1191 -15 l3 -83 -181 0 -180 0 0 78 c0 43 3 82 7 86 4 3 84 5 177 4 l171 -3
3 -82z"/>
<path d="M12875 18632 c-27 -14 -108 -51 -178 -84 -546 -249 -1130 -410 -1661
-458 -60 -5 -110 -11 -112 -12 -1 -2 22 -97 52 -212 30 -115 54 -211 54 -213
0 -1 -88 -3 -195 -3 l-195 0 0 -235 0 -235 1085 0 1085 0 0 235 0 235 -817 1
c-717 1 -805 3 -713 14 525 64 1136 243 1700 497 74 34 136 62 138 64 2 1
-185 424 -192 431 0 0 -23 -10 -51 -25z"/>
<path d="M12980 17415 l0 -235 190 0 190 0 0 235 0 235 -190 0 -190 0 0 -235z"/>
<path d="M10640 16695 l0 -235 1085 0 1085 0 0 235 0 235 -1085 0 -1085 0 0
-235z"/>
<path d="M12980 16695 l0 -235 190 0 190 0 0 235 0 235 -190 0 -190 0 0 -235z"/>
<path d="M10640 15970 l0 -240 1083 2 1082 3 3 238 2 237 -1085 0 -1085 0 0
-240z"/>
<path d="M12980 15970 l0 -240 188 2 187 3 3 238 2 237 -190 0 -190 0 0 -240z"/>
<path d="M10030 15379 c-369 -35 -641 -145 -784 -317 l-36 -44 0 -467 0 -467
73 -72 73 -72 274 2 275 3 1 255 c3 357 29 540 94 645 24 39 82 65 145 65 l45
0 0 -485 0 -485 388 6 c213 4 391 10 395 14 11 10 747 1380 747 1391 0 4 -7
15 -16 23 -14 14 -99 16 -802 15 -433 -1 -825 -5 -872 -10z"/>
<path d="M12620 15359 c30 -17 100 -53 155 -81 108 -54 135 -73 135 -95 0 -7
-173 -337 -385 -733 -212 -395 -388 -726 -391 -735 -6 -13 94 -15 985 -15
1063 0 1030 1 1076 -50 28 -31 35 -209 10 -256 -37 -69 44 -64 -1151 -64
l-1078 0 46 -47 c60 -62 137 -166 195 -265 l46 -78 82 0 82 0 67 -50 c110 -84
191 -204 203 -300 7 -59 -20 -186 -54 -255 -38 -76 -83 -126 -232 -253 -323
-278 -727 -694 -841 -868 -56 -86 -90 -185 -97 -284 -7 -95 9 -154 52 -197
l33 -33 2672 0 2672 0 33 33 c77 77 73 254 -10 422 -80 160 -528 634 -886 936
-139 117 -182 164 -220 244 -38 78 -63 194 -56 255 11 95 84 204 194 291 l74
59 85 0 84 0 39 78 c62 122 135 218 265 347 130 128 257 225 407 312 l93 53
237 0 237 0 32 38 c93 108 309 276 470 365 148 81 358 161 561 212 111 28 333
75 356 75 11 0 13 -25 11 -136 l-3 -137 -55 -14 c-108 -27 -189 -96 -239 -202
l-26 -56 0 -525 0 -525 33 -67 c50 -102 154 -182 255 -196 l37 -5 0 -242 0
-242 -42 -7 c-60 -10 -154 -63 -195 -110 -20 -23 -47 -66 -62 -96 l-26 -55 0
-520 0 -520 27 -56 c36 -72 105 -141 176 -176 57 -28 58 -28 257 -28 196 0
201 1 257 27 73 34 142 103 176 176 l27 57 0 520 0 520 -26 56 c-15 31 -43 74
-63 96 -42 47 -136 99 -194 109 l-42 7 0 243 0 244 25 0 c46 0 134 41 183 85
27 24 64 72 83 107 l34 63 0 535 0 535 -28 55 c-52 100 -133 167 -237 193
l-55 14 -3 160 -2 159 137 23 c343 57 554 135 668 247 33 33 58 68 65 91 7 25
10 130 8 298 l-3 260 -3745 2 -3745 3 55 -31z m6311 -1651 c17 -14 40 -18 114
-18 123 0 134 8 137 109 l3 74 33 -28 c18 -15 43 -46 55 -69 21 -40 22 -52 25
-391 4 -404 1 -431 -59 -499 -23 -25 -45 -46 -50 -46 -5 0 -9 37 -9 83 0 92
-4 101 -43 116 -61 23 -199 9 -219 -22 -4 -7 -8 -49 -8 -94 0 -46 -4 -83 -8
-83 -13 0 -68 62 -88 100 -18 32 -19 64 -19 415 0 373 0 381 22 421 12 23 37
54 55 69 l33 28 3 -74 c2 -61 6 -77 23 -91z m-2849 -31 c42 -29 58 -75 58
-167 0 -93 -15 -131 -63 -160 -31 -19 -54 -20 -557 -20 -502 0 -526 1 -554 19
-47 31 -55 56 -56 167 0 89 3 105 22 129 43 55 39 55 603 52 483 -2 522 -3
547 -20z m-701 -704 c43 -26 59 -69 59 -163 0 -95 -18 -143 -61 -165 -24 -13
-189 -15 -1164 -15 -1264 0 -1176 -5 -1210 66 -20 43 -20 185 0 228 34 70 -56
65 1208 66 1056 0 1141 -1 1168 -17z m95 -749 c41 -28 54 -65 54 -159 0 -99
-15 -142 -59 -168 -27 -16 -117 -17 -1258 -17 -979 1 -1233 3 -1251 14 -48 26
-62 63 -62 164 0 101 7 125 48 159 l27 23 1238 0 c1133 0 1240 -1 1263 -16z
m3451 -576 c13 -15 33 -18 116 -18 129 0 137 6 137 102 l0 69 30 -21 c16 -12
42 -42 57 -68 l28 -47 3 -330 c2 -181 1 -354 -3 -382 -9 -76 -55 -141 -124
-175 -112 -57 -265 -27 -331 64 -46 64 -52 115 -48 480 3 373 4 379 76 446
l37 35 3 -69 c2 -45 8 -75 19 -86z m-2809 -218 c45 -28 62 -73 62 -167 0 -93
-19 -137 -71 -165 -32 -17 -111 -18 -1892 -18 -1677 0 -1862 2 -1892 16 -53
25 -68 57 -73 154 -5 102 11 150 60 180 33 20 45 20 1903 20 1858 0 1870 0
1903 -20z"/>
<path d="M12036 15258 c-8 -13 -546 -1017 -1196 -2233 -650 -1215 -1193 -2229
-1206 -2251 l-24 -42 -437 234 c-240 129 -440 231 -444 226 -4 -4 -70 -116
-147 -250 l-140 -244 97 -96 c132 -131 186 -237 229 -442 l17 -85 780 -417
c429 -230 782 -418 785 -417 3 0 111 185 240 412 l235 412 5 -730 c4 -571 8
-737 18 -760 18 -41 69 -92 117 -118 l40 -22 3245 0 c2706 0 3251 2 3283 14
50 17 103 64 130 115 l22 41 0 800 0 800 -22 40 c-25 47 -64 85 -113 111 -34
18 -135 19 -3270 22 -3587 2 -3299 8 -3373 -64 -52 -51 -68 -86 -76 -165 l-6
-67 -387 206 c-213 114 -388 210 -388 213 0 3 547 1023 1215 2268 668 1244
1215 2270 1215 2279 0 13 -57 48 -200 125 -110 59 -207 107 -215 107 -8 0 -21
-10 -29 -22z m5381 -5108 c65 -40 63 -10 63 -745 0 -735 2 -705 -63 -745 -32
-20 -75 -20 -3152 -20 -3075 0 -3120 0 -3152 20 -72 44 -68 -4 -68 763 l0 689
33 29 32 29 3138 0 c3094 0 3137 0 3169 -20z"/>
<path d="M11530 9861 l-185 -47 -3 -87 c-3 -103 -13 -99 142 -62 58 14 122 25
141 25 l35 0 2 -387 3 -388 158 -3 157 -3 0 489 c0 366 -3 491 -12 500 -8 8
-51 12 -132 11 -110 -1 -139 -5 -306 -48z"/>
<path d="M12472 9890 c-65 -30 -82 -74 -82 -223 0 -135 10 -171 63 -213 l36
-28 -37 -21 c-62 -34 -72 -68 -72 -240 0 -131 3 -154 20 -182 43 -71 11 -68
640 -71 631 -3 609 -5 657 67 21 32 23 44 23 190 0 177 -9 207 -75 238 l-35
17 36 30 c54 44 64 77 64 219 0 136 -10 164 -73 211 -28 21 -38 21 -575 23
-525 3 -549 2 -590 -17z m932 -182 c11 -15 16 -46 16 -95 0 -120 21 -113 -367
-113 -389 0 -363 -8 -363 116 0 62 4 87 16 98 13 14 59 16 349 16 334 0 334 0
349 -22z m5 -404 c17 -22 21 -41 21 -100 0 -121 23 -114 -377 -114 -299 0
-338 2 -355 17 -15 13 -18 31 -18 100 0 132 -26 123 374 123 l335 0 20 -26z"/>
<path d="M14180 9892 c-23 -11 -43 -33 -57 -62 -21 -41 -23 -57 -23 -225 0
-168 2 -184 23 -225 40 -82 29 -80 539 -80 l447 0 20 -26 c29 -37 30 -135 1
-164 -19 -19 -33 -20 -354 -20 -284 0 -337 2 -350 15 -12 12 -45 15 -170 15
l-156 0 0 -42 c0 -66 35 -127 86 -150 41 -18 70 -19 606 -16 l563 3 32 23 c62
44 64 63 61 494 -3 373 -4 388 -24 415 -47 65 -31 63 -649 63 -513 0 -563 -1
-595 -18z m954 -184 c11 -15 16 -46 16 -96 0 -70 -10 -109 -34 -124 -6 -4
-159 -8 -340 -8 -293 0 -331 2 -348 17 -15 13 -18 32 -18 113 0 61 4 100 12
108 9 9 101 12 354 12 l343 0 15 -22z"/>
<path d="M15902 9890 c-18 -11 -41 -34 -52 -52 -19 -31 -20 -51 -20 -423 0
-429 1 -433 63 -479 28 -21 40 -21 595 -24 633 -3 611 -5 659 67 22 33 23 43
23 238 0 226 -5 248 -63 283 -30 19 -53 20 -475 20 -441 0 -473 2 -494 34 -4
6 -8 41 -8 77 0 105 -21 99 373 99 285 0 338 -2 351 -15 12 -12 45 -15 166
-15 l152 0 -4 65 c-4 60 -7 69 -41 103 l-37 37 -578 3 c-562 2 -578 2 -610
-18z m950 -567 c15 -13 18 -32 18 -106 0 -137 30 -127 -367 -127 -400 0 -373
-9 -373 127 0 133 -29 123 368 123 298 0 337 -2 354 -17z"/>
<path d="M4655 20464 c-49 -25 -104 -84 -148 -159 -22 -38 -67 -109 -98 -158
-73 -110 -101 -184 -97 -251 3 -49 4 -51 33 -54 44 -4 210 108 236 160 29 57
76 106 115 118 68 23 85 -28 53 -162 -13 -53 -19 -105 -16 -126 8 -43 42 -82
74 -82 27 0 83 26 83 39 0 4 16 24 35 44 43 44 85 50 109 15 27 -38 20 -92
-24 -174 -44 -84 -54 -158 -24 -188 23 -24 92 -20 138 7 144 88 194 440 93
661 -36 79 -196 213 -341 286 -64 33 -89 40 -135 40 -31 0 -69 -7 -86 -16z"/>
<path d="M22470 20343 c-28 -10 -70 -56 -81 -90 -10 -30 -8 -38 20 -82 50 -78
145 -160 322 -279 181 -121 237 -170 269 -231 57 -113 -11 -144 -156 -72 -49
25 -141 90 -244 172 -197 158 -227 173 -333 174 -71 0 -81 -2 -98 -24 -10 -13
-19 -35 -19 -50 0 -46 57 -150 117 -213 67 -70 108 -95 229 -144 199 -80 214
-96 214 -222 0 -134 -43 -212 -116 -212 -51 0 -133 35 -215 92 -168 118 -212
144 -374 223 -256 126 -415 176 -560 176 -104 1 -146 -22 -158 -86 -13 -65 9
-93 131 -166 113 -68 148 -83 476 -204 99 -37 203 -78 230 -92 28 -14 115 -53
193 -88 159 -71 234 -117 288 -177 49 -53 58 -79 91 -238 24 -116 28 -159 28
-305 1 -248 -40 -466 -145 -778 -58 -171 -70 -251 -46 -309 19 -46 48 -65 119
-79 48 -10 61 -9 100 9 137 60 209 350 238 962 15 309 29 401 72 463 28 39 60
35 113 -14 58 -54 99 -119 123 -199 23 -77 30 -138 41 -363 7 -155 9 -169 31
-192 33 -35 97 -57 156 -53 48 3 50 4 74 53 35 71 39 214 11 398 -35 227 -27
341 31 411 80 98 128 5 143 -279 6 -125 34 -385 56 -510 13 -80 25 -100 78
-135 35 -24 55 -30 98 -30 47 0 58 4 93 36 52 47 52 65 0 267 -31 121 -43 197
-55 332 -9 96 -27 239 -40 317 -60 343 -68 404 -69 548 -1 118 2 154 17 192
21 53 58 88 93 88 80 0 86 166 7 242 -30 29 -41 33 -101 36 -54 3 -80 -2 -135
-22 -42 -16 -88 -26 -121 -26 -50 0 -64 6 -222 101 -252 152 -508 331 -827
580 -100 78 -153 104 -187 92z m894 -928 c73 -19 200 -85 254 -131 56 -47 106
-151 106 -219 0 -102 -96 -229 -251 -331 -122 -80 -165 -98 -226 -90 -99 11
-217 108 -274 223 -21 45 -28 74 -31 144 -8 172 15 222 106 234 109 14 125 18
143 36 10 10 19 32 19 49 0 43 19 78 49 89 36 13 39 13 105 -4z"/>
<path d="M6360 20113 c-109 -12 -380 -57 -471 -79 -76 -18 -128 -38 -183 -69
-166 -94 -266 -196 -431 -437 -49 -72 -102 -140 -117 -151 -36 -26 -71 -24
-118 7 -48 31 -72 32 -152 5 -104 -35 -159 -5 -204 113 -45 118 -75 131 -191
78 -36 -16 -71 -30 -78 -30 -24 0 -35 28 -46 110 -13 110 -19 120 -72 120 -68
-1 -124 -32 -147 -82 -23 -51 -24 -82 -6 -169 17 -84 10 -128 -43 -239 -22
-47 -43 -105 -46 -130 -6 -42 -5 -47 20 -60 31 -17 85 -17 126 0 57 24 100
-20 149 -153 27 -72 45 -83 112 -67 67 16 176 8 217 -16 111 -65 106 -214 -18
-546 -28 -76 -60 -170 -71 -210 -27 -92 -37 -251 -21 -301 7 -20 58 -122 112
-227 117 -221 153 -261 307 -338 76 -37 103 -46 148 -46 44 -1 59 3 71 19 40
53 -17 197 -157 395 -100 142 -146 234 -162 327 -11 66 -10 87 16 240 70 428
206 806 369 1027 125 168 457 463 609 540 109 55 162 62 344 46 149 -12 206
-10 271 11 27 8 35 18 44 52 18 69 -13 191 -63 245 -21 22 -36 24 -118 15z
m-1400 -950 c16 -21 20 -37 16 -61 -14 -91 -120 -174 -164 -130 -32 32 1 155
53 196 37 30 69 28 95 -5z"/>
<path d="M6055 19461 c-51 -11 -58 -42 -57 -239 3 -266 -19 -357 -94 -388 -18
-8 -38 -14 -43 -14 -20 0 -31 70 -31 204 -1 189 -18 234 -104 278 -57 29 -135
26 -191 -7 -72 -41 -160 -177 -279 -426 -91 -189 -126 -319 -129 -475 -2 -112
3 -120 120 -176 46 -21 87 -48 93 -59 11 -20 -9 -55 -82 -142 -29 -34 -33 -46
-33 -99 0 -53 3 -63 25 -79 14 -11 51 -24 83 -31 108 -23 190 16 285 134 92
115 144 169 184 189 42 21 113 25 124 7 4 -7 9 -56 10 -109 3 -123 11 -139 70
-139 85 0 153 53 203 160 22 47 26 69 26 146 0 88 -1 94 -49 193 -44 91 -49
109 -49 169 0 57 8 87 51 197 28 72 58 157 66 190 9 33 31 96 49 140 60 141
66 207 26 286 -25 50 -44 67 -87 78 -54 13 -152 20 -187 12z m-468 -477 c40
-30 43 -61 13 -157 -44 -144 -120 -276 -172 -303 -27 -14 -31 -14 -49 2 -30
27 -43 89 -29 143 12 50 135 305 158 327 20 20 41 17 79 -12z m103 -484 c21
-21 23 -28 20 -75 -6 -109 -128 -197 -185 -135 -18 19 -18 23 -2 73 23 74 93
152 140 156 4 1 16 -8 27 -19z"/>
<path d="M3776 18911 c-23 -25 -42 -90 -50 -171 -9 -77 -19 -112 -58 -204 -38
-88 -36 -148 9 -204 86 -108 338 -206 533 -207 147 0 185 27 275 198 55 104
75 173 75 258 0 82 -21 136 -57 150 -63 24 -113 -17 -182 -150 -29 -55 -59
-102 -66 -105 -7 -2 -23 3 -35 11 -22 15 -22 19 -15 107 12 128 10 172 -9 201
-14 21 -24 25 -69 25 -31 0 -62 -6 -74 -15 -25 -17 -46 -80 -63 -179 -12 -77
-36 -130 -73 -165 -23 -21 -29 -22 -62 -11 -63 21 -64 40 -1 183 72 166 92
233 75 253 -36 44 -123 58 -153 25z"/>
<path d="M4013 13719 c-34 -11 -81 -34 -105 -52 -55 -42 -132 -144 -187 -249
-75 -141 -145 -241 -188 -265 -83 -46 -159 -38 -212 22 -41 47 -54 103 -48
200 6 90 30 164 81 245 l35 55 -27 6 c-15 4 -71 10 -126 13 l-98 6 5 -243 c3
-184 8 -256 21 -300 39 -139 106 -228 206 -276 48 -23 68 -26 155 -26 88 1
106 4 151 27 83 43 142 123 253 337 91 174 145 230 237 246 120 19 203 -65
212 -216 6 -98 -15 -171 -68 -238 -22 -28 -36 -51 -32 -51 12 0 179 -28 211
-36 l23 -5 -5 223 c-5 247 -13 294 -72 415 -41 84 -94 134 -172 163 -69 26
-167 25 -250 -1z"/>
<path d="M23666 13668 c-3 -18 -8 -76 -11 -128 -3 -52 -8 -104 -11 -115 -4
-18 2 -22 58 -32 66 -13 253 -99 432 -200 90 -51 98 -57 81 -69 -49 -36 -485
-194 -560 -203 l-50 -6 -7 -143 c-4 -79 -11 -173 -16 -210 -6 -37 -9 -68 -7
-70 1 -1 33 19 71 44 75 51 336 180 584 289 118 52 164 68 195 66 157 -8 460
-48 510 -68 9 -3 14 37 18 139 4 79 9 160 13 180 l7 38 -134 -6 c-74 -3 -200
-1 -281 4 l-147 11 -98 62 c-247 157 -459 304 -568 394 -72 60 -73 60 -79 23z"/>
<path d="M4502 12757 c-19 -23 -109 -55 -232 -82 -206 -47 -720 -123 -1003
-150 -57 -6 -67 -9 -63 -23 10 -32 46 -246 46 -271 0 -55 7 -56 146 -23 158
38 454 95 460 89 12 -11 74 -371 74 -424 0 -17 -16 -22 -157 -41 -168 -23
-407 -52 -434 -52 -15 0 -15 -6 -4 -54 7 -30 21 -109 31 -174 l17 -119 61 18
c222 66 864 174 1159 195 53 4 97 11 97 15 0 5 -11 73 -25 151 -14 78 -25 157
-25 175 0 38 -7 40 -58 14 -60 -31 -166 -59 -341 -91 -91 -16 -166 -28 -167
-27 -10 10 -79 435 -72 442 7 7 332 55 443 66 66 6 121 12 122 13 1 1 -9 67
-23 146 -42 245 -37 225 -52 207z"/>
<path d="M23540 12326 c0 -50 -116 -600 -181 -859 -28 -110 -49 -200 -47 -201
2 -1 35 -14 73 -28 39 -14 77 -28 85 -32 13 -5 15 9 16 96 1 84 27 284 38 296
2 1 136 -25 297 -59 327 -68 636 -143 778 -189 52 -17 96 -29 98 -26 2 2 15
57 28 122 14 66 31 142 39 170 l14 52 -57 7 c-240 28 -444 65 -796 146 -364
83 -338 75 -331 107 15 61 70 220 92 264 13 27 23 51 22 55 -2 7 -168 85 -168
79z"/>
<path d="M3442 11169 c18 -46 67 -210 73 -242 4 -20 10 -39 14 -41 3 -2 48 7
99 20 113 29 362 49 374 31 10 -16 63 -176 87 -264 l19 -72 -111 -67 c-95 -57
-260 -143 -299 -156 -7 -3 3 -47 30 -134 23 -71 46 -149 52 -174 6 -25 13 -51
15 -58 3 -8 32 11 80 52 41 36 116 97 167 134 196 146 804 547 890 587 l35 17
-54 144 c-29 80 -53 152 -53 161 0 12 -6 13 -27 7 -45 -14 -597 -7 -873 11
-238 15 -460 38 -504 51 -13 5 -17 2 -14 -7z m1173 -229 c-4 -6 -92 -68 -197
-137 -150 -100 -192 -123 -199 -112 -11 17 -64 180 -74 227 l-7 32 242 0 c165
0 239 -3 235 -10z"/>
<path d="M23255 11098 c-10 -40 -33 -118 -52 -172 -18 -55 -33 -104 -33 -108
0 -4 23 -8 51 -8 65 0 214 -30 366 -74 209 -62 554 -176 711 -238 84 -33 155
-58 156 -56 1 1 13 41 25 88 13 47 36 121 52 164 16 44 28 80 26 81 -1 2 -60
15 -132 30 -299 63 -880 247 -1140 361 -6 3 -19 -27 -30 -68z"/>
<path d="M23062 10532 c-113 -240 -146 -345 -146 -472 -1 -108 21 -173 79
-238 50 -55 132 -97 224 -114 119 -22 228 20 422 163 205 150 249 170 336 144
93 -28 138 -111 113 -206 -29 -108 -110 -216 -216 -286 -30 -20 -54 -39 -54
-42 1 -3 47 -31 103 -62 l102 -56 62 123 c157 309 191 461 137 617 -24 71 -98
147 -182 186 -163 75 -251 48 -517 -157 -60 -46 -132 -96 -160 -110 -94 -49
-212 -27 -267 50 -19 27 -23 46 -23 103 0 58 5 82 32 137 37 79 93 138 156
164 26 10 47 22 47 25 0 5 -112 83 -186 131 -7 5 -29 -31 -62 -100z"/>
<path d="M5035 10278 c-154 -111 -838 -412 -1080 -476 -36 -9 -63 -21 -61 -27
3 -5 25 -54 49 -108 25 -54 47 -107 50 -118 5 -20 9 -18 64 19 136 92 371 217
622 333 107 49 196 87 199 84 2 -2 -74 -111 -170 -242 -192 -262 -367 -507
-445 -623 l-50 -75 53 -95 c30 -52 54 -101 54 -107 0 -21 14 -16 149 52 308
154 759 345 981 416 58 18 107 35 109 36 2 1 -1 9 -8 17 -7 8 -34 64 -60 125
-40 92 -51 109 -61 96 -19 -23 -154 -107 -305 -188 -136 -73 -454 -222 -459
-215 -4 4 356 508 424 594 30 37 83 101 117 141 l62 73 -24 43 c-13 23 -47 96
-76 162 -28 66 -54 123 -58 126 -3 4 -37 -16 -76 -43z"/>
<path d="M22752 9615 c-82 -36 -141 -109 -243 -303 -40 -75 -112 -207 -160
-294 l-87 -158 41 -10 c99 -25 222 -85 608 -296 235 -128 385 -217 477 -280
l63 -44 19 46 c16 36 66 127 146 266 2 3 -22 16 -53 28 -92 34 -493 233 -493
244 0 25 63 118 93 137 28 18 43 20 127 15 101 -5 282 -40 418 -79 l83 -24 39
78 c22 42 62 116 90 163 27 46 50 87 50 90 0 3 -42 6 -94 6 -53 0 -185 13
-299 30 -113 17 -219 30 -237 30 -43 0 -99 -25 -138 -63 l-34 -32 9 40 c4 22
8 68 8 102 -1 125 -98 253 -229 302 -66 25 -155 27 -204 6z m114 -311 c65 -31
137 -94 158 -138 30 -64 17 -135 -44 -234 -17 -29 -36 -52 -41 -52 -13 0 -361
198 -379 215 -12 13 -10 24 20 86 75 153 153 187 286 123z"/>
<path d="M5385 8989 c-167 -25 -376 -139 -524 -289 -110 -110 -171 -238 -171
-361 0 -65 34 -189 75 -274 61 -128 206 -334 321 -457 l44 -47 58 40 c81 57
255 160 362 214 50 25 90 49 88 53 -2 4 -28 46 -59 93 -31 47 -71 111 -89 142
-17 31 -36 57 -40 57 -5 0 -18 -16 -30 -35 -28 -46 -82 -89 -205 -164 -122
-75 -157 -80 -204 -26 -71 81 -117 218 -102 301 15 82 80 176 175 252 208 167
422 261 561 248 112 -11 190 -65 259 -180 60 -100 81 -176 80 -293 0 -57 0
-103 1 -103 1 0 39 15 86 34 46 18 99 37 116 41 18 3 35 10 38 14 6 10 -154
292 -231 408 -165 249 -380 366 -609 332z"/>
<path d="M22030 8513 c-79 -114 -192 -275 -252 -356 -59 -81 -108 -150 -108
-152 0 -3 10 -5 23 -5 58 0 177 -74 552 -341 216 -154 338 -246 497 -379 l37
-31 62 93 c78 116 224 325 341 484 48 67 88 124 88 125 0 7 -141 151 -144 148
-1 -2 -7 -26 -14 -54 -26 -105 -158 -337 -219 -385 -53 -41 -94 -26 -293 112
l-148 103 42 59 c22 33 73 93 111 133 l70 72 -68 62 c-37 34 -70 60 -71 58 -2
-2 -14 -24 -26 -49 -44 -88 -162 -260 -174 -253 -69 40 -336 242 -343 258 -7
19 135 202 232 300 l80 80 -66 63 -66 63 -143 -208z"/>
<path d="M6315 8073 c-27 -51 -142 -165 -314 -312 -181 -155 -458 -376 -576
-460 -49 -36 -92 -66 -93 -67 -2 -1 33 -44 77 -94 45 -51 96 -112 113 -137
l32 -44 110 109 c61 60 152 144 201 187 50 44 102 90 116 102 l26 24 90 -103
c106 -122 193 -232 193 -244 -1 -10 -263 -220 -393 -315 l-87 -63 44 -46 c47
-49 140 -160 169 -200 l18 -25 46 53 c127 147 634 573 948 798 l30 21 -59 64
c-33 35 -86 98 -119 139 -33 41 -62 76 -66 77 -3 1 -22 -23 -41 -54 -36 -58
-123 -144 -277 -275 l-91 -77 -81 93 c-125 142 -201 240 -198 253 3 16 254
223 354 292 45 31 82 60 83 64 0 5 -29 41 -65 80 -37 40 -87 100 -113 134 -26
34 -49 63 -52 63 -3 0 -14 -17 -25 -37z"/>
<path d="M21614 7923 c-6 -10 -49 -61 -96 -114 l-85 -95 33 -22 c53 -35 157
-164 279 -347 145 -217 267 -419 255 -423 -11 -4 -502 214 -640 284 -58 29
-136 74 -174 99 -38 25 -72 45 -76 45 -3 0 -40 -39 -80 -87 -41 -49 -99 -114
-128 -145 l-54 -57 28 -6 c83 -19 153 -43 294 -100 201 -82 619 -262 834 -359
92 -43 170 -76 171 -74 1 2 33 44 70 93 l68 90 -20 35 c-11 19 -140 244 -288
500 -238 412 -313 549 -366 668 -12 29 -15 31 -25 15z"/>
<path d="M20690 6927 c-36 -34 -97 -92 -137 -128 l-72 -65 77 -51 c89 -60 177
-144 391 -373 176 -188 313 -345 402 -460 l62 -79 126 120 c69 67 126 124 126
128 0 4 -34 36 -75 71 -197 170 -721 729 -820 877 -15 23 -15 23 -80 -40z"/>
<path d="M7434 6842 c-61 -77 -947 -547 -1199 -636 -18 -6 -15 -11 25 -44 25
-20 77 -67 117 -105 l72 -69 58 59 c60 61 192 164 269 209 29 17 48 23 58 17
38 -21 246 -216 246 -230 0 -25 -88 -187 -166 -305 l-71 -107 51 -43 c28 -24
93 -83 144 -132 51 -49 94 -87 96 -85 1 2 15 44 30 94 57 185 378 877 519
1119 l40 69 -30 26 c-71 61 -225 186 -231 188 -4 1 -17 -10 -28 -25z m-103
-304 c-53 -118 -159 -333 -173 -351 -13 -17 -20 -14 -98 56 -47 41 -93 83
-103 95 -19 20 -18 21 25 48 74 48 362 214 370 214 4 0 -6 -28 -21 -62z"/>
<path d="M20289 6554 c-24 -20 -72 -56 -106 -81 l-63 -45 43 -34 c78 -64 267
-278 426 -483 61 -79 110 -146 107 -148 -8 -9 -579 234 -747 318 l-177 88 -22
-24 c-13 -13 -78 -65 -145 -115 l-122 -91 107 -107 c183 -185 473 -584 696
-960 1 -2 28 17 60 43 31 26 80 62 109 81 l52 35 -86 87 c-132 134 -275 300
-424 494 -76 97 -137 179 -137 182 0 2 136 -54 303 -126 166 -72 407 -172 535
-224 l233 -95 67 60 c37 32 79 70 94 83 l27 23 -90 110 c-227 277 -609 809
-665 928 -10 20 -21 37 -25 37 -4 0 -27 -16 -50 -36z"/>
<path d="M8091 6263 c-33 -87 -110 -206 -273 -425 -182 -244 -272 -358 -396
-501 -52 -60 -92 -109 -91 -111 2 -1 36 -24 74 -51 39 -27 100 -73 136 -102
36 -29 69 -53 71 -53 3 0 25 33 48 73 121 205 525 753 680 922 80 88 81 77 -3
133 -40 28 -107 77 -149 110 l-76 60 -21 -55z"/>
<path d="M19267 5797 c-37 -24 -94 -56 -127 -72 l-59 -28 54 -59 c30 -32 83
-102 118 -156 83 -126 268 -450 326 -572 42 -87 46 -102 46 -171 0 -67 -3 -80
-28 -116 -35 -51 -133 -121 -194 -139 -66 -20 -111 -17 -170 10 -43 20 -61 38
-105 101 -115 165 -392 670 -443 808 -10 26 -20 47 -22 47 -2 0 -53 -29 -113
-64 -59 -36 -131 -76 -159 -91 l-52 -26 46 -45 c66 -66 154 -205 320 -504 81
-146 165 -288 186 -316 69 -91 167 -144 264 -144 147 0 421 133 554 269 77 78
112 158 112 253 0 100 -18 146 -155 396 -177 324 -260 489 -292 579 -16 46
-31 83 -34 83 -3 0 -35 -20 -73 -43z"/>
<path d="M9056 5588 c-24 -94 -117 -273 -316 -608 -232 -391 -259 -429 -343
-472 -51 -25 -147 -21 -219 10 l-47 21 -20 -61 c-12 -34 -20 -62 -18 -64 1 -1
45 -18 97 -37 253 -94 423 -86 538 26 47 45 69 80 308 497 169 295 241 411
310 503 24 31 44 61 44 65 0 4 -28 23 -62 41 -58 32 -186 107 -233 137 -20 13
-22 10 -39 -58z"/>
<path d="M9610 5314 c0 -83 -103 -328 -299 -709 -59 -115 -142 -268 -185 -339
-42 -71 -75 -130 -74 -131 2 -1 41 -19 87 -40 46 -21 117 -55 158 -77 l73 -40
11 29 c6 15 23 62 39 103 87 235 403 876 511 1036 l28 41 -77 33 c-42 18 -118
55 -168 81 -50 27 -94 49 -98 49 -3 0 -6 -16 -6 -36z"/>
<path d="M17575 4945 c-332 -97 -462 -157 -580 -267 -178 -167 -217 -384 -120
-675 132 -396 354 -555 681 -488 120 25 298 91 452 166 128 63 143 73 138 92
-3 12 -27 87 -55 167 -27 80 -62 195 -76 255 -15 61 -28 115 -30 122 -3 8 -29
3 -87 -19 -46 -17 -119 -42 -163 -55 -44 -14 -83 -27 -87 -29 -4 -3 5 -17 19
-32 41 -44 69 -100 112 -221 51 -141 52 -180 10 -215 -72 -61 -272 -83 -355
-39 -90 48 -170 157 -237 328 -79 200 -103 389 -64 502 50 143 212 233 417
233 78 -1 124 -11 204 -45 18 -8 19 -5 13 31 -4 21 -12 83 -18 137 -7 53 -15
97 -18 97 -3 -1 -73 -21 -156 -45z"/>
<path d="M10480 4935 c0 -30 -31 -77 -157 -234 -236 -292 -538 -636 -668 -759
-42 -41 -75 -75 -73 -76 1 -1 29 -10 62 -20 32 -10 94 -33 138 -52 44 -19 83
-34 88 -34 4 0 13 20 20 45 19 68 115 229 215 363 3 4 127 -39 233 -80 l102
-41 0 -36 c0 -48 -34 -279 -54 -365 -9 -38 -13 -72 -9 -76 5 -4 51 -22 103
-40 52 -18 130 -48 173 -67 43 -18 80 -33 81 -33 0 0 -3 46 -8 103 -10 110 2
429 29 777 16 208 42 469 51 510 5 24 0 27 -148 75 -191 62 -178 59 -178 40z
m-5 -539 c-9 -116 -18 -212 -19 -214 -4 -3 -160 52 -219 78 l-48 21 31 42 c17
23 83 109 148 191 106 135 117 146 120 121 2 -15 -4 -123 -13 -239z"/>
<path d="M16462 4574 c-24 -7 -80 -19 -125 -25 -45 -7 -84 -13 -85 -15 -2 -1
12 -42 31 -91 44 -110 107 -337 152 -553 20 -91 38 -175 40 -187 3 -13 2 -23
-2 -22 -9 1 -374 411 -452 507 -41 52 -190 248 -196 259 0 1 -25 -4 -55 -12
-30 -8 -104 -24 -165 -35 -60 -12 -120 -23 -132 -25 l-22 -5 23 -48 c13 -26
36 -84 50 -130 66 -211 186 -910 186 -1084 0 -52 3 -54 60 -38 19 6 73 17 119
25 47 8 86 16 87 18 2 2 -15 57 -37 122 -61 184 -118 399 -165 630 -23 115
-42 211 -40 212 1 1 108 -120 237 -270 130 -150 302 -346 384 -435 124 -138
151 -163 169 -157 11 3 66 18 121 32 l100 27 -27 105 c-84 337 -198 1002 -198
1158 0 29 -3 53 -7 52 -5 -1 -28 -7 -51 -15z"/>
<path d="M11459 4552 c-219 -73 -344 -248 -414 -582 -38 -180 -27 -349 30
-466 76 -154 287 -268 567 -305 257 -33 460 66 571 279 71 136 127 368 127
521 -1 280 -147 449 -465 538 -124 34 -333 42 -416 15z m394 -152 c66 -25 116
-71 147 -136 35 -72 40 -249 11 -392 -58 -279 -147 -450 -264 -506 -86 -40
-219 -26 -297 32 -47 35 -57 48 -87 112 -38 79 -43 224 -14 368 60 288 151
460 276 518 65 31 153 32 228 4z"/>
<path d="M12949 4244 c-9 -49 -15 -90 -14 -92 1 -1 22 2 46 8 67 16 335 25
343 12 21 -34 -43 -961 -80 -1168 l-6 -31 114 -7 c62 -3 142 -9 178 -12 l65
-6 0 328 c0 312 27 858 44 876 10 11 221 -19 296 -43 37 -11 68 -19 69 -17 3
6 44 173 42 175 0 1 -125 6 -276 13 -241 9 -508 26 -735 46 l-70 6 -16 -88z"/>
<path d="M14600 4309 c-284 -35 -450 -169 -517 -419 -26 -97 -23 -351 5 -484
50 -237 161 -372 352 -431 118 -35 362 -30 510 12 290 82 426 329 391 710 -32
352 -155 534 -405 598 -76 19 -241 26 -336 14z m189 -144 c60 -21 102 -56 140
-120 71 -117 107 -321 98 -549 -6 -163 -28 -242 -88 -310 -65 -74 -106 -91
-220 -91 -89 0 -99 2 -144 30 -86 53 -136 139 -173 300 -12 52 -16 121 -17
270 0 184 2 205 23 264 41 115 95 173 191 207 49 18 139 17 190 -1z"/>
</g>
</svg>
