<?xml version="1.0" standalone="no"?>
<!DOCTYPE svg PUBLIC "-//W3C//DTD SVG 20010904//EN"
 "http://www.w3.org/TR/2001/REC-SVG-20010904/DTD/svg10.dtd">
<svg version="1.0" xmlns="http://www.w3.org/2000/svg"
 width="1060.000000pt" height="884.000000pt" viewBox="0 0 1060.000000 884.000000"
 preserveAspectRatio="xMidYMid meet">

<g transform="translate(0.000000,884.000000) scale(0.100000,-0.100000)"
fill="#000000" stroke="none">
<path d="M7951 7919 c-57 -25 -431 -165 -597 -223 -72 -25 -164 -51 -205 -57
-120 -19 -421 -5 -859 40 -698 71 -919 85 -1610 102 -807 20 -1399 -12 -1827
-100 -459 -95 -793 -259 -1016 -501 -231 -250 -349 -581 -334 -935 15 -336
161 -608 456 -845 l86 -70 65 0 c46 0 61 3 50 10 -11 7 3 10 45 10 42 0 56 3
45 10 -10 7 16 10 83 10 58 0 97 -4 97 -10 0 -6 31 -10 74 -10 41 0 78 -4 81
-10 3 -5 18 -10 32 -10 l26 0 -7 -187 c-18 -474 -122 -1075 -280 -1608 -20
-66 -36 -124 -36 -130 0 -9 354 16 364 26 7 6 55 184 88 319 51 212 106 506
134 710 14 107 28 201 30 208 3 11 57 13 286 10 261 -3 287 -5 336 -25 152
-61 235 -168 487 -623 59 -107 148 -266 198 -353 l89 -158 232 7 c127 4 232 7
233 8 1 1 -21 38 -49 82 -52 81 -229 373 -359 594 -134 227 -253 367 -382 450
l-68 44 83 17 c378 77 586 279 627 609 20 157 -20 351 -100 488 -51 85 -171
201 -254 244 -143 74 -261 97 -706 138 -340 31 -820 83 -919 99 -30 5 -56 8
-57 7 -1 0 5 -69 12 -151 7 -83 16 -201 20 -264 l7 -114 -33 26 c-108 82 -235
282 -274 432 -50 189 -19 457 76 650 170 349 575 562 1222 645 258 32 448 42
842 42 1270 -1 2246 -151 3055 -469 247 -97 609 -285 820 -426 129 -86 295
-213 410 -312 l111 -96 88 46 c48 25 95 51 105 58 15 11 1 35 -143 249 -255
378 -906 1298 -929 1312 -4 2 -27 -4 -51 -15z m-4671 -1999 c135 -11 313 -24
395 -30 292 -21 395 -52 502 -152 98 -93 139 -201 130 -338 -12 -199 -142
-341 -352 -385 -78 -16 -404 -20 -773 -8 l-212 6 5 96 c3 53 8 115 11 139 l5
42 332 0 332 0 -175 59 c-245 83 -486 187 -495 214 -2 7 -5 96 -7 200 l-4 187
31 -5 c16 -3 140 -14 275 -25z"/>
<path d="M7185 6213 c-27 -2 -162 -12 -300 -24 -137 -11 -360 -25 -495 -32
l-245 -12 -8 -180 c-10 -221 -1 -1155 13 -1395 22 -374 80 -1033 91 -1044 2
-2 126 -9 274 -15 149 -6 430 -21 625 -32 474 -27 622 -17 776 55 97 46 147
93 189 180 50 103 69 214 62 356 -16 295 -141 568 -334 725 -53 44 -224 135
-253 135 -6 0 15 21 49 46 188 141 284 389 259 670 -19 217 -125 409 -273 494
-93 53 -260 81 -430 73z m171 -348 c189 -56 274 -359 168 -596 -43 -96 -128
-162 -251 -194 -60 -16 -406 -34 -664 -35 l-136 0 -7 228 c-4 126 -4 308 0
405 l7 177 31 1 c17 0 155 9 306 19 298 20 467 19 546 -5z m14 -1160 c257 -58
423 -283 424 -575 0 -238 -119 -340 -399 -341 -130 -1 -746 20 -791 27 -27 4
-33 10 -38 37 -17 100 -76 739 -76 834 l0 32 73 4 c39 2 221 3 402 2 269 -2
344 -6 405 -20z"/>
<path d="M906 2363 c151 -273 359 -608 559 -903 185 -274 239 -350 249 -350 4
0 45 22 90 48 351 209 789 382 1117 442 233 42 411 38 1514 -30 909 -56 1140
-67 1940 -91 849 -25 1629 -23 1905 5 622 63 985 194 1216 439 44 46 98 117
121 158 46 81 99 230 110 305 l6 47 -89 -6 c-49 -3 -120 -14 -159 -23 -99 -24
-285 -24 -390 1 -44 10 -120 19 -169 19 l-89 1 -23 -68 c-62 -182 -209 -340
-409 -439 -383 -190 -992 -256 -2100 -229 -1473 37 -2256 89 -2955 196 -655
101 -1213 267 -1651 491 l-106 54 -362 0 -363 0 38 -67z"/>
</g>
</svg>
